PathFileType	4	(X/Y/Z)	C:/Users/opensim2020/Desktop/walking_exp_matlab/subject02_walking17_run.trc	
DataRate	CameraRate	NumFrames	NumMarkers	Units	OrigDataRate	OrigDataStartFrame	OrigNumFrames	
100.00	100.00	4	51	mm	100.00	273	112	
Frame#	Time	LSHO			RELB			LANK			LTOE			LUPA			RUPA			RWRB			LKNE			RSHO			RFIN			RFRM			RASI			LTHI			LWRB			RTHI			LASI			LFHD			RKNE			LELB			LTIB			RWRA			STRN			RTIB			RFHD			RANK			RBHD			RTOE			RHEE			C7			LHEE			LFRM			CLAV			LWRA			LBHD			RBAK			LFIN			T10			LPSI			RPSI			*39			*40			*41			*42			*43			*44			*45			*46			*47			*48			*49			*50			
		X1	Y1	Z1	X2	Y2	Z2	X3	Y3	Z3	X4	Y4	Z4	X5	Y5	Z5	X6	Y6	Z6	X7	Y7	Z7	X8	Y8	Z8	X9	Y9	Z9	X10	Y10	Z10	X11	Y11	Z11	X12	Y12	Z12	X13	Y13	Z13	X14	Y14	Z14	X15	Y15	Z15	X16	Y16	Z16	X17	Y17	Z17	X18	Y18	Z18	X19	Y19	Z19	X20	Y20	Z20	X21	Y21	Z21	X22	Y22	Z22	X23	Y23	Z23	X24	Y24	Z24	X25	Y25	Z25	X26	Y26	Z26	X27	Y27	Z27	X28	Y28	Z28	X29	Y29	Z29	X30	Y30	Z30	X31	Y31	Z31	X32	Y32	Z32	X33	Y33	Z33	X34	Y34	Z34	X35	Y35	Z35	X36	Y36	Z36	X37	Y37	Z37	X38	Y38	Z38	X39	Y39	Z39	X40	Y40	Z40	X41	Y41	Z41	X42	Y42	Z42	X43	Y43	Z43	X44	Y44	Z44	X45	Y45	Z45	X46	Y46	Z46	X47	Y47	Z47	X48	Y48	Z48	X49	Y49	Z49	X50	Y50	Z50	X51	Y51	Z51	

43	0.420	-134.52132	-332.24426	1477.20471	326.44391	-646.81195	1265.13220	-93.07008	-978.38623	267.82687	-77.42822	-993.94781	103.55900	-272.16666	-267.26175	1352.84924	268.28503	-569.33600	1383.70496	325.62927	-525.60303	1036.04285	-108.56355	-632.40375	488.59482	187.77711	-425.64499	1470.06079	335.15668	-459.79132	1031.19080	333.35498	-586.78601	1154.28491	132.03070	-368.20593	980.39899	-144.17903	-528.92163	662.02130	-87.70405	-154.16376	1107.55945	251.20372	-360.79117	700.45172	-99.55409	-349.24231	954.35474	-33.29182	-292.23038	1710.59070	223.27652	-260.19022	512.83044	-316.88632	-196.52574	1232.52429	-119.39049	-808.44116	405.75076	297.24725	-490.80914	1072.89465	40.61783	-301.05295	1246.24951	238.92438	-227.84587	328.99542	111.52005	-299.71539	1698.35522	215.45021	-171.54173	139.20503	95.79674	-431.77029	1605.10168	224.56653	-2.40767	113.40524	154.58125	-182.20235	84.81137	1.36675	-445.65710	1500.97241	-40.45868	-1000.62598	295.72818	-202.49500	-165.16954	1156.11487	30.60101	-319.82040	1421.89868	-71.07067	-199.78287	1136.10840	-45.66844	-412.40317	1620.82837	33.26830	-538.80792	1350.63904	-21.25501	-163.57822	1089.44824	-22.42036	-542.10535	1247.34753	-53.43205	-547.96118	1039.48889	64.08837	-569.15009	1048.09497	-3357.40332	2846.08545	1034.65491																47.26744	-406.61871	1766.65369															 
44	0.430	-129.65544	-292.51685	1476.31030	327.91418	-604.28284	1252.28625	-88.57317	-934.49487	282.78668	-79.11965	-957.55365	119.72417	-270.67087	-227.75966	1356.15442	271.67905	-529.79572	1372.75073	327.59982	-471.77109	1029.36279	-104.89368	-576.71082	480.54388	193.24530	-386.07513	1464.74280	336.58170	-405.64929	1027.92419	334.56430	-538.47058	1144.50085	135.26265	-327.66257	978.24298	-139.65511	-476.82581	655.08173	-111.24667	-115.52427	1081.88794	257.47342	-324.47855	692.18896	-94.64788	-305.50879	952.94812	-27.80461	-253.67882	1707.90076	225.00354	-217.26195	511.16245	-322.22314	-159.86404	1236.65039	-115.31316	-756.55219	409.12296	298.36053	-439.00201	1067.57739	44.43076	-261.13477	1244.19678	238.68013	-190.18506	326.43835	116.59674	-260.99460	1695.83997	212.30602	-142.53557	134.14143	100.95145	-392.75833	1601.78992	225.03809	24.85522	102.90936	150.45418	-153.69635	80.16220	6.65879	-406.05737	1498.00476	-34.76814	-954.78308	310.28903	-218.57043	-127.95410	1145.84131	35.72816	-279.60550	1419.11047	-90.33193	-161.05902	1107.80676	-40.59758	-373.54587	1617.70874	37.02461	-499.22037	1347.91260	-48.25961	-124.60703	1053.27698	-19.93075	-501.74191	1245.44336	-50.28640	-506.42963	1039.57080	67.62537	-528.05646	1047.53223	-3357.45874	2845.83862	1034.60327																52.49963	-368.38776	1763.84412															 
45	0.440	-124.70853	-252.70642	1474.16321	330.27814	-559.98663	1237.48889	-84.01315	-886.02417	296.48795	-79.50098	-916.52997	135.06281	-269.01840	-188.50435	1358.12134	276.25497	-489.04214	1359.94324	329.93814	-416.00082	1022.06671	-100.94485	-518.61627	471.84854	198.61859	-346.82141	1458.60376	338.52701	-350.00598	1024.28320	336.66229	-488.41391	1133.39868	139.76570	-287.19617	974.92133	-135.73419	-424.03784	646.59412	-139.05779	-78.01327	1056.67395	261.22876	-287.39972	683.56281	-90.07864	-262.74301	951.03912	-22.98292	-215.49991	1704.16565	227.52992	-173.51306	508.55618	-327.11737	-123.59705	1239.88037	-109.77000	-701.90161	412.87610	300.42474	-385.63696	1062.02722	48.11615	-221.37152	1240.57031	237.69455	-157.75426	321.54376	121.32520	-222.31848	1692.46204	208.81340	-120.05328	127.39220	105.99249	-353.43646	1597.54724	218.57803	45.40526	87.99225	146.75621	-134.03389	74.06811	11.84319	-365.93140	1494.35742	-28.91868	-904.52148	323.55701	-236.16029	-91.37592	1135.70496	40.65573	-239.59149	1415.43726	-113.34373	-122.89143	1079.94995	-35.56343	-334.58081	1613.38599	41.16596	-459.85580	1344.66614	-81.24052	-86.73843	1018.71338	-16.85582	-461.74173	1243.50000	-46.88875	-465.29498	1038.52783	70.90080	-487.33664	1045.28125	-3357.48584	2845.91455	1034.38477																57.45470	-330.40677	1759.70142															 
46	0.450	-119.57217	-212.58229	1470.60913	333.75125	-513.87878	1221.05115	-79.33928	-833.20691	308.58069	-79.40271	-869.59229	149.26132	-267.26794	-149.90605	1358.80151	281.37033	-447.58664	1345.09631	332.48267	-358.51462	1014.48492	-96.72079	-458.34085	462.53824	204.15991	-307.36673	1451.63550	340.74265	-292.77759	1020.35522	339.78647	-436.92984	1121.22913	144.13431	-247.82030	970.40503	-132.16739	-370.64532	637.13098	-170.74219	-41.52893	1033.43005	261.23526	-246.91560	675.24231	-86.52142	-220.42598	949.09875	-18.84855	-177.13754	1699.91016	230.22011	-131.78461	503.04446	-331.43109	-87.62762	1242.33386	-103.44255	-644.26184	415.42017	302.48206	-330.49048	1055.75903	51.71206	-181.74246	1235.54443	236.55988	-130.23245	314.67770	125.63551	-183.64603	1688.30200	205.20039	-102.38921	118.93252	110.85043	-313.97073	1592.25952	208.42909	60.48367	70.23908	143.53954	-120.84811	67.06335	16.79888	-325.45480	1490.11389	-23.48871	-850.47638	335.12836	-255.46762	-55.44683	1125.94690	45.57354	-199.51968	1410.77527	-141.02350	-85.70905	1053.40686	-30.73013	-295.46832	1607.78394	45.82355	-420.58414	1340.96118	-119.31258	-50.24146	987.16919	-13.13872	-422.07346	1241.19727	-43.71267	-424.26419	1035.89087	73.77488	-446.72305	1041.23779	-3357.17847	2845.96899	1034.30823																61.94836	-292.46643	1754.46753															 
